<svg width="314" height="155" viewBox="0 0 314 155" fill="none" xmlns="http://www.w3.org/2000/svg">
<path d="M79.7428 0.375107C74.1404 2.26012 70.8969 5.73444 69.9386 10.835C69.4594 13.3853 69.57 14.0876 71.2286 18.4859C75.3198 29.4633 75.6884 38.7035 72.7029 55.8534C71.5234 62.6911 69.828 70.8595 69.6068 70.8595C69.4963 70.8595 68.1325 67.8656 66.5476 64.2065C60.9821 51.3811 57.9966 41.7713 57.0383 33.7877C56.7065 30.7939 56.7434 29.6481 57.4437 24.8432C58.3651 18.4859 58.2546 17.2662 56.5591 13.718C54.3108 9.06091 50.7355 6.58453 45.7966 6.25189C39.5307 5.84532 33.4492 9.72621 31.8274 15.1225C31.1271 17.5989 31.1271 21.7755 31.8643 24.2518C32.3434 25.9151 32.97 26.7652 35.6975 29.5003C39.8993 33.7138 40.6733 35.1922 41.5948 41.2908C42.3319 46.2066 41.7791 68.3461 40.8945 70.0463C40.7102 70.379 39.7887 69.6028 37.9827 67.57C33.6703 62.802 30.2425 57.9971 28.3259 54.0423C25.5247 48.2394 25.3035 46.5762 26.3356 38.9253C27.1096 32.8637 26.4461 30.1656 23.2764 26.2108C17.6002 19.1882 5.51081 20.8884 1.38272 29.2785C-0.497036 33.1594 -0.460178 37.8904 1.49329 41.8082C2.59903 43.9889 5.73196 47.0936 8.42259 48.7199L10.8552 50.1614L11.3344 53.9314C11.8872 58.5885 14.0619 69.6767 16.3839 79.5453C17.3054 83.611 18.5585 88.9333 19.1114 91.4097C19.6643 93.8491 20.3646 96.3255 20.6963 96.9538C20.9912 97.5452 23.9398 101.093 27.2202 104.863C33.8177 112.403 34.9235 113.882 36.3241 116.913C37.7615 120.054 37.4298 122.346 34.8498 128.001C31.7537 134.765 31.2008 136.835 30.9797 142.12L30.8322 146.629L32.1591 147.886C36.1767 151.693 49.3349 153.874 74.1404 154.798C94.0437 155.537 114.905 154.206 126 151.545C129.317 150.769 133.592 148.662 134.366 147.479C134.919 146.666 135.03 145.631 134.993 141.861V137.204L133.224 133.323C129.906 126.042 128.543 122.605 128.506 121.422C128.358 117.208 130.57 113.697 139.711 103.607C145.203 97.5082 145.534 96.806 147.746 87.7875C151.468 72.4857 154.749 55.9273 154.749 52.2682C154.749 50.3092 154.896 50.1614 157.292 48.8308C162.157 46.2066 165.18 41.993 165.843 36.8924C166.138 34.527 166.064 33.9356 165.216 31.2374C164.332 28.5023 164 27.9479 161.789 25.7303C158.84 22.7734 156.739 21.9233 152.537 21.8863C150.178 21.8863 149.404 22.0712 147.303 23.0691C142.696 25.2498 139.821 28.9459 139.379 33.2703C139.268 34.4161 139.453 37.5208 139.821 40.2928C140.411 44.9869 140.411 45.4674 139.858 47.9807C138.716 53.1183 134.882 59.4386 128.432 66.7938C126.184 69.3441 125.041 70.379 124.894 70.0463C124.378 69.0854 123.677 54.6337 123.862 48.8678C124.193 39.6275 126 34.1943 130.349 29.4264C133.813 25.6563 134.293 24.4736 134.293 19.8535C134.293 16.3052 134.219 15.7878 133.224 13.9398C131.491 10.6133 129.906 8.91309 127.179 7.58249C124.931 6.47366 124.451 6.36278 121.208 6.36278C118.112 6.36278 117.448 6.47366 115.642 7.39769C110.961 9.68927 108.345 13.3114 108.05 17.9315C107.939 19.2991 108.123 22.182 108.455 24.3997C109.635 32.3832 108.861 38.6296 105.322 49.1265C103.221 55.3729 97.3977 69.5658 96.5132 70.6007C96.1814 70.9704 95.4443 67.8287 93.7488 58.8472C89.9893 38.9622 90.2104 31.0896 94.8177 18.1902C96.292 14.0506 96.4026 13.0157 95.5548 9.72621C94.5228 5.62355 92.0165 2.48189 88.6255 0.966492C86.3772 0.00550842 81.8437 -0.327148 79.7428 0.375107ZM86.1929 7.58249C87.8515 8.39563 88.773 10.2437 88.773 12.757C88.773 16.8597 86.9669 18.7447 83.06 18.7447C79.0425 18.7447 77.2733 16.8227 77.2733 12.5352C77.2733 10.7611 77.4207 9.91103 77.9736 9.20877C79.0056 7.7673 80.9222 6.91719 83.06 6.91719C84.092 6.91719 85.4926 7.21288 86.1929 7.58249ZM48.2292 15.0116C51.1778 17.1184 51.141 22.9582 48.1555 25.1389C46.6812 26.2477 43.9168 26.3956 41.8528 25.4715C39.6782 24.5106 38.941 23.0691 38.941 20.0013C38.941 16.6749 40.0836 14.9747 42.8848 14.2724C44.4697 13.8658 47.1603 14.2354 48.2292 15.0116ZM124.71 15.0116C126.405 15.9726 127.179 17.7837 127.032 20.4818C126.81 24.067 125.189 25.7303 121.577 26.026C119.439 26.2477 116.969 24.991 116.011 23.18C114.647 20.6666 115.384 16.7857 117.485 15.1595C119.144 13.8658 122.572 13.7919 124.71 15.0116ZM16.3471 30.3873C19.0377 31.9397 19.8854 35.3401 18.4111 38.5926C17.4897 40.5516 16.1259 41.2908 13.2878 41.2908C9.41776 41.2908 7.50114 39.2579 7.50114 35.1183C7.50114 33.3812 7.68543 32.568 8.27516 31.7918C10.0075 29.3894 13.6196 28.7611 16.3471 30.3873ZM155.449 30.1286C157.513 31.1635 158.25 32.4571 158.25 35.1183C158.25 37.8534 157.624 39.2949 155.891 40.4407C153.496 42.067 149.331 41.3278 147.598 38.9992C146.456 37.4099 146.382 34.0834 147.451 32.2723C148.999 29.6481 152.648 28.6502 155.449 30.1286ZM51.2147 46.3544C52.689 50.8636 56.3011 59.6973 58.402 63.9478C61.1664 69.4919 62.9355 72.1161 67.2111 77.0689L70.7863 81.2455L73.0346 77.6233C77.2364 70.7486 79.8165 62.9498 82.1754 50.0875C82.6177 47.5002 83.0968 45.4304 83.1706 45.5043C83.2443 45.6152 84.2026 49.5331 85.2715 54.301C87.2987 63.1347 88.9941 69.3071 89.9524 71.5987C90.2841 72.3009 91.611 74.7773 92.9011 77.0689L95.2968 81.2085L98.7246 77.1428C103.516 71.4878 105.433 68.5309 108.418 62.3585C111.256 56.4447 111.662 55.4098 114.242 48.4982L116.011 43.6932L115.79 48.3133C115.532 53.7096 116.122 61.9149 117.338 70.4899C118.259 76.6623 119.623 84.535 119.844 84.7937C120.065 85.0155 125.373 81.1715 128.432 78.5843C132.192 75.4426 137.61 69.6398 141.48 64.65C143.544 61.9519 144.429 61.0648 144.429 61.6193C144.429 63.2086 141.111 78.9539 139.858 83.3153C138.568 87.8245 136.873 91.7424 135.841 92.5925C135.435 92.9621 134.477 92.6294 131.012 91.0031C121.061 86.2352 109.377 83.3892 95.4811 82.2804C87.999 81.652 70.0491 82.0956 63.5253 83.0196C51.2516 84.7568 40.7102 87.8245 33.5229 91.7793C31.3114 92.999 31.1271 93.036 30.3162 92.4816C28.289 91.151 26.3724 85.0155 23.2026 69.5658C22.5761 66.4981 21.8758 63.3564 21.6915 62.5433C21.5072 61.7671 21.3966 61.0279 21.4703 60.954C21.544 60.917 23.0184 62.6542 24.7138 64.8349C30.7217 72.4488 37.2087 78.7321 43.5851 83.0196C46.7917 85.2003 46.3863 85.6438 47.4552 78.8061C49.6667 64.7609 50.5881 55.3359 50.367 48.683C50.2933 46.0587 50.2564 43.878 50.2933 43.878C50.3301 43.878 50.7355 44.9869 51.2147 46.3544ZM95.8497 91.3727C116.011 93.0729 125.226 96.0668 124.82 100.761C124.636 102.831 123.972 102.905 108.603 101.944C91.5742 100.946 79.3742 100.946 59.1023 101.944C41.4473 102.831 41.2262 102.831 41.2262 100.687C41.2262 100.022 41.4842 99.1345 41.7791 98.654C43.9537 95.5863 55.7851 92.2598 68.3168 91.2249C74.6564 90.7075 88.6993 90.7814 95.8497 91.3727ZM102.779 110.075C108.75 110.445 119.328 111.406 120.729 111.701L121.54 111.886L120.655 113.475C118.96 116.469 118.554 123.677 119.918 125.82C120.581 126.781 120.618 126.781 117.706 126.301C113.284 125.562 105.875 124.859 98.0612 124.416C84.1289 123.677 59.692 124.453 50.625 125.931C49.4087 126.153 47.8975 126.412 47.2709 126.486L46.0914 126.67L46.6075 125.303C47.6763 122.235 46.976 115.397 45.3174 113.069L44.5065 111.923L45.3543 111.738C46.5337 111.479 52.3573 110.851 57.9229 110.371C69.9017 109.336 89.1416 109.225 102.779 110.075ZM107.902 133.471C115.2 134.358 118.997 135.319 120.655 136.761C122.203 138.128 122.461 139.533 121.392 140.715C119.955 142.305 114.684 143.561 105.543 144.485C99.4249 145.114 67.3585 145.114 60.7978 144.485C48.9295 143.34 44.1748 141.75 44.1748 138.941C44.1748 137.796 45.428 136.391 47.3446 135.43C49.0769 134.543 54.0528 133.767 60.7609 133.323C64.115 133.102 67.5796 132.88 68.5011 132.806C69.4225 132.732 77.5313 132.732 86.5615 132.769C98.7246 132.843 104.253 133.028 107.902 133.471Z" fill="#017C1C"/>
<path d="M12.16 127C9.10667 127 6.84667 126.273 5.38 124.82C3.92667 123.353 3.2 121.093 3.2 118.04V108.84C3.2 105.76 3.92667 103.493 5.38 102.04C6.83333 100.573 9.08 99.8533 12.12 99.88H16.96C19.4667 99.88 21.38 100.4 22.7 101.44C24.02 102.467 24.7867 104.093 25 106.32C25.08 106.88 24.9733 107.307 24.68 107.6C24.3867 107.893 23.96 108.04 23.4 108.04C22.3867 108.04 21.8 107.48 21.64 106.36C21.5067 105.133 21.08 104.307 20.36 103.88C19.6533 103.453 18.52 103.24 16.96 103.24H12.12C10.7067 103.227 9.59333 103.387 8.78 103.72C7.98 104.053 7.40667 104.633 7.06 105.46C6.72667 106.273 6.56 107.4 6.56 108.84V118.04C6.56 119.467 6.72667 120.587 7.06 121.4C7.40667 122.213 7.98667 122.793 8.8 123.14C9.61333 123.473 10.7333 123.64 12.16 123.64H16.96C18.52 123.64 19.6533 123.427 20.36 123C21.08 122.56 21.5067 121.733 21.64 120.52C21.8 119.4 22.3867 118.84 23.4 118.84C23.96 118.84 24.3867 118.987 24.68 119.28C24.9733 119.573 25.08 120 25 120.56C24.7867 122.8 24.02 124.433 22.7 125.46C21.38 126.487 19.4667 127 16.96 127H12.16ZM33.6916 127C32.5716 127 32.0116 126.44 32.0116 125.32V100.52C32.0116 99.4 32.5716 98.84 33.6916 98.84C34.8116 98.84 35.3716 99.4 35.3716 100.52V109.06C36.7849 107.5 38.8649 106.72 41.6116 106.72H42.7316C45.3982 106.72 47.3716 107.36 48.6516 108.64C49.9316 109.92 50.5716 111.893 50.5716 114.56V125.32C50.5716 126.44 50.0116 127 48.8916 127C47.7716 127 47.2116 126.44 47.2116 125.32V114.56C47.2116 112.813 46.8916 111.633 46.2516 111.02C45.6249 110.393 44.4516 110.08 42.7316 110.08H41.6116C40.0116 110.08 38.6182 110.267 37.4316 110.64C36.2449 111 35.5582 111.573 35.3716 112.36V125.32C35.3716 126.44 34.8116 127 33.6916 127ZM60.8959 118.24V119.2C60.8959 120.92 61.2093 122.093 61.8359 122.72C62.4626 123.333 63.6426 123.64 65.3759 123.64H68.6559C70.0159 123.64 71.0226 123.513 71.6759 123.26C72.3293 123.007 72.7626 122.56 72.9759 121.92C73.1226 121.413 73.3226 121.027 73.5759 120.76C73.8426 120.493 74.2426 120.36 74.7759 120.36C75.3359 120.36 75.7626 120.507 76.0559 120.8C76.3493 121.093 76.4426 121.52 76.3359 122.08C76.0426 123.733 75.2559 124.967 73.9759 125.78C72.6959 126.593 70.9226 127 68.6559 127H65.3759C62.7226 127 60.7493 126.36 59.4559 125.08C58.1759 123.8 57.5359 121.84 57.5359 119.2V114.56C57.5359 111.853 58.1759 109.867 59.4559 108.6C60.7493 107.32 62.7226 106.693 65.3759 106.72H68.6559C71.3226 106.72 73.2959 107.36 74.5759 108.64C75.8559 109.907 76.4959 111.88 76.4959 114.56V116.56C76.4959 117.68 75.9359 118.24 74.8159 118.24H60.8959ZM65.3759 110.08C63.6426 110.053 62.4626 110.353 61.8359 110.98C61.2093 111.607 60.8959 112.8 60.8959 114.56V114.88H73.1359V114.56C73.1359 112.813 72.8226 111.633 72.1959 111.02C71.5826 110.393 70.4026 110.08 68.6559 110.08H65.3759ZM88.6075 127C86.9142 127 85.5742 126.653 84.5875 125.96C83.6008 125.253 82.9675 124.2 82.6875 122.8C82.5942 122.24 82.7008 121.8 83.0075 121.48C83.3275 121.16 83.7675 121 84.3275 121C84.8742 121 85.2675 121.14 85.5075 121.42C85.7608 121.687 85.9675 122.093 86.1275 122.64C86.2875 123.04 86.5542 123.307 86.9275 123.44C87.3142 123.573 87.8742 123.64 88.6075 123.64H95.1675C96.2075 123.64 96.9075 123.473 97.2675 123.14C97.6275 122.793 97.8075 122.08 97.8075 121C97.8075 119.933 97.6275 119.227 97.2675 118.88C96.9075 118.533 96.2075 118.36 95.1675 118.36H88.7275C86.8075 118.36 85.3608 117.873 84.3875 116.9C83.4142 115.927 82.9275 114.48 82.9275 112.56C82.9275 110.6 83.4008 109.14 84.3475 108.18C85.3075 107.207 86.7675 106.72 88.7275 106.72H94.9675C98.1008 106.72 99.9542 108.04 100.528 110.68C100.634 111.24 100.528 111.673 100.208 111.98C99.8875 112.287 99.4475 112.44 98.8875 112.44C98.3675 112.44 97.9808 112.307 97.7275 112.04C97.4742 111.76 97.2742 111.373 97.1275 110.88C96.9675 110.56 96.7208 110.347 96.3875 110.24C96.0675 110.133 95.5942 110.08 94.9675 110.08H88.7275C87.7142 110.08 87.0542 110.233 86.7475 110.54C86.4408 110.847 86.2875 111.52 86.2875 112.56C86.2875 113.52 86.4475 114.167 86.7675 114.5C87.1008 114.833 87.7542 115 88.7275 115H95.1675C97.1675 115 98.6675 115.5 99.6675 116.5C100.668 117.5 101.168 119 101.168 121C101.168 123.013 100.668 124.52 99.6675 125.52C98.6675 126.507 97.1675 127 95.1675 127H88.6075ZM113.061 127C111.367 127 110.027 126.653 109.041 125.96C108.054 125.253 107.421 124.2 107.141 122.8C107.047 122.24 107.154 121.8 107.461 121.48C107.781 121.16 108.221 121 108.781 121C109.327 121 109.721 121.14 109.961 121.42C110.214 121.687 110.421 122.093 110.581 122.64C110.741 123.04 111.007 123.307 111.381 123.44C111.767 123.573 112.327 123.64 113.061 123.64H119.621C120.661 123.64 121.361 123.473 121.721 123.14C122.081 122.793 122.261 122.08 122.261 121C122.261 119.933 122.081 119.227 121.721 118.88C121.361 118.533 120.661 118.36 119.621 118.36H113.181C111.261 118.36 109.814 117.873 108.841 116.9C107.867 115.927 107.381 114.48 107.381 112.56C107.381 110.6 107.854 109.14 108.801 108.18C109.761 107.207 111.221 106.72 113.181 106.72H119.421C122.554 106.72 124.407 108.04 124.981 110.68C125.087 111.24 124.981 111.673 124.661 111.98C124.341 112.287 123.901 112.44 123.341 112.44C122.821 112.44 122.434 112.307 122.181 112.04C121.927 111.76 121.727 111.373 121.581 110.88C121.421 110.56 121.174 110.347 120.841 110.24C120.521 110.133 120.047 110.08 119.421 110.08H113.181C112.167 110.08 111.507 110.233 111.201 110.54C110.894 110.847 110.741 111.52 110.741 112.56C110.741 113.52 110.901 114.167 111.221 114.5C111.554 114.833 112.207 115 113.181 115H119.621C121.621 115 123.121 115.5 124.121 116.5C125.121 117.5 125.621 119 125.621 121C125.621 123.013 125.121 124.52 124.121 125.52C123.121 126.507 121.621 127 119.621 127H113.061ZM134.434 127C133.314 127 132.754 126.44 132.754 125.32V101.56C132.754 100.44 133.314 99.88 134.434 99.88H148.794C149.914 99.88 150.474 100.44 150.474 101.56C150.474 102.68 149.914 103.24 148.794 103.24H136.114V111.64H144.074C145.194 111.64 145.754 112.2 145.754 113.32C145.754 114.44 145.194 115 144.074 115H136.114V123.64H148.794C149.914 123.64 150.474 124.2 150.474 125.32C150.474 126.44 149.914 127 148.794 127H134.434ZM155.615 126.6C154.735 125.92 154.615 125.133 155.255 124.24L161.175 115.9L156.255 109.48C155.549 108.6 155.655 107.827 156.575 107.16C157.442 106.453 158.215 106.547 158.895 107.44L163.535 113.48L168.095 107.44C168.762 106.52 169.549 106.413 170.455 107.12C171.335 107.787 171.442 108.573 170.775 109.48L165.635 116.24L171.735 124.2C172.389 125.093 172.295 125.88 171.455 126.56C170.549 127.267 169.762 127.16 169.095 126.24L163.315 118.7L157.975 126.2C157.309 127.12 156.522 127.253 155.615 126.6ZM179.863 135C178.743 135 178.183 134.44 178.183 133.32V108.4C178.183 107.28 178.743 106.72 179.863 106.72C180.983 106.72 181.543 107.28 181.543 108.4V108.9C182.263 108.18 183.15 107.64 184.203 107.28C185.27 106.907 186.463 106.72 187.783 106.72H189.303C191.97 106.72 193.943 107.36 195.223 108.64C196.503 109.92 197.143 111.893 197.143 114.56V119.16C197.143 121.813 196.503 123.787 195.223 125.08C193.943 126.36 191.97 127 189.303 127H181.543V133.32C181.543 134.44 180.983 135 179.863 135ZM181.543 123.64H189.303C191.05 123.64 192.23 123.327 192.843 122.7C193.47 122.073 193.783 120.893 193.783 119.16V114.56C193.783 112.813 193.47 111.633 192.843 111.02C192.23 110.393 191.05 110.08 189.303 110.08H187.783C186.117 110.08 184.677 110.28 183.463 110.68C182.25 111.08 181.61 111.713 181.543 112.58V123.64ZM210.552 127C208.512 127 206.992 126.5 205.992 125.5C205.005 124.487 204.512 122.96 204.512 120.92V100.52C204.512 99.4 205.072 98.84 206.192 98.84C207.312 98.84 207.872 99.4 207.872 100.52V120.92C207.872 122 208.045 122.727 208.392 123.1C208.752 123.46 209.472 123.64 210.552 123.64C211.698 123.64 212.272 124.2 212.272 125.32C212.312 126.44 211.738 127 210.552 127ZM224.321 127C221.668 127 219.695 126.36 218.401 125.08C217.121 123.8 216.481 121.84 216.481 119.2V114.56C216.481 111.88 217.121 109.907 218.401 108.64C219.695 107.36 221.668 106.72 224.321 106.72H227.601C230.268 106.72 232.241 107.36 233.521 108.64C234.801 109.92 235.441 111.893 235.441 114.56V119.16C235.441 121.813 234.801 123.787 233.521 125.08C232.241 126.36 230.268 127 227.601 127H224.321ZM219.841 119.2C219.841 120.92 220.155 122.093 220.781 122.72C221.408 123.333 222.588 123.64 224.321 123.64H227.601C229.348 123.64 230.528 123.327 231.141 122.7C231.768 122.073 232.081 120.893 232.081 119.16V114.56C232.081 112.813 231.768 111.633 231.141 111.02C230.528 110.393 229.348 110.08 227.601 110.08H224.321C223.161 110.08 222.255 110.213 221.601 110.48C220.961 110.733 220.508 111.187 220.241 111.84C219.975 112.48 219.841 113.387 219.841 114.56V119.2ZM260.233 127.08C259.793 127.36 259.373 127.447 258.973 127.34C258.573 127.233 258.233 126.96 257.953 126.52L251.753 116.2H246.153V125.32C246.153 126.44 245.593 127 244.473 127C243.353 127 242.793 126.44 242.793 125.32V101.56C242.793 100.44 243.353 99.88 244.473 99.88H253.833C256.273 99.88 258.139 100.533 259.433 101.84C260.739 103.133 261.393 105 261.393 107.44V108.64C261.393 110.76 260.899 112.453 259.913 113.72C258.926 114.973 257.499 115.753 255.633 116.06L260.873 124.8C261.379 125.733 261.166 126.493 260.233 127.08ZM246.153 112.84H253.833C255.353 112.84 256.433 112.52 257.073 111.88C257.713 111.24 258.033 110.16 258.033 108.64V107.44C258.033 105.933 257.713 104.86 257.073 104.22C256.433 103.567 255.353 103.24 253.833 103.24H246.153V112.84ZM270.193 118.24V119.2C270.193 120.92 270.506 122.093 271.133 122.72C271.759 123.333 272.939 123.64 274.673 123.64H277.953C279.313 123.64 280.319 123.513 280.973 123.26C281.626 123.007 282.059 122.56 282.273 121.92C282.419 121.413 282.619 121.027 282.873 120.76C283.139 120.493 283.539 120.36 284.073 120.36C284.633 120.36 285.059 120.507 285.353 120.8C285.646 121.093 285.739 121.52 285.633 122.08C285.339 123.733 284.553 124.967 283.273 125.78C281.993 126.593 280.219 127 277.953 127H274.673C272.019 127 270.046 126.36 268.753 125.08C267.473 123.8 266.833 121.84 266.833 119.2V114.56C266.833 111.853 267.473 109.867 268.753 108.6C270.046 107.32 272.019 106.693 274.673 106.72H277.953C280.619 106.72 282.593 107.36 283.873 108.64C285.153 109.907 285.793 111.88 285.793 114.56V116.56C285.793 117.68 285.233 118.24 284.113 118.24H270.193ZM274.673 110.08C272.939 110.053 271.759 110.353 271.133 110.98C270.506 111.607 270.193 112.8 270.193 114.56V114.88H282.433V114.56C282.433 112.813 282.119 111.633 281.493 111.02C280.879 110.393 279.699 110.08 277.953 110.08H274.673ZM294.824 127C293.704 127 293.144 126.44 293.144 125.32V108.4C293.144 107.28 293.704 106.72 294.824 106.72C295.944 106.72 296.504 107.28 296.504 108.4V109.96C297.291 108.893 298.291 108.087 299.504 107.54C300.731 106.993 302.131 106.72 303.704 106.72C304.824 106.72 305.384 107.28 305.384 108.4C305.384 109.52 304.824 110.08 303.704 110.08C301.398 110.08 299.638 110.507 298.424 111.36C297.211 112.213 296.571 113.34 296.504 114.74V125.32C296.504 126.44 295.944 127 294.824 127Z" fill="#0F0F20"/>
</svg>
