<?xml version="1.0" encoding="UTF-8" standalone="no"?>
<!-- Created with Inkscape (http://www.inkscape.org/) -->

<svg
   xmlns:dc="http://purl.org/dc/elements/1.1/"
   xmlns:cc="http://creativecommons.org/ns#"
   xmlns:rdf="http://www.w3.org/1999/02/22-rdf-syntax-ns#"
   xmlns:svg="http://www.w3.org/2000/svg"
   xmlns="http://www.w3.org/2000/svg"
   xmlns:sodipodi="http://sodipodi.sourceforge.net/DTD/sodipodi-0.dtd"
   xmlns:inkscape="http://www.inkscape.org/namespaces/inkscape"
   id="svg3338"
   version="1.1"
   inkscape:version="0.48.2 r9819"
   width="956.57117"
   height="308.87952"
   xml:space="preserve"
   sodipodi:docname="WMiNI-znak-EN-RGB_mr.svg"
   inkscape:export-filename="C:\Users\root\Desktop\WMiNI-znak-EN-RGB_mr_75pr.png"
   inkscape:export-xdpi="67.5"
   inkscape:export-ydpi="67.5"><metadata
     id="metadata3344"><rdf:RDF><cc:Work
         rdf:about=""><dc:format>image/svg+xml</dc:format><dc:type
           rdf:resource="http://purl.org/dc/dcmitype/StillImage" /><dc:title></dc:title></cc:Work></rdf:RDF></metadata><defs
     id="defs3342"><clipPath
       clipPathUnits="userSpaceOnUse"
       id="clipPath3354"><path
         d="m 0,595.28 841.89,0 L 841.89,0 0,0 0,595.28 z"
         id="path3356"
         inkscape:connector-curvature="0" /></clipPath></defs><sodipodi:namedview
     pagecolor="#ffffff"
     bordercolor="#666666"
     borderopacity="1"
     objecttolerance="10"
     gridtolerance="10"
     guidetolerance="10"
     inkscape:pageopacity="0"
     inkscape:pageshadow="2"
     inkscape:window-width="1920"
     inkscape:window-height="1018"
     id="namedview3340"
     showgrid="false"
     fit-margin-top="77.22"
     fit-margin-left="77.22"
     fit-margin-bottom="77.22"
     fit-margin-right="77.22"
     inkscape:zoom="1.5"
     inkscape:cx="422.33521"
     inkscape:cy="85.305727"
     inkscape:window-x="-8"
     inkscape:window-y="-8"
     inkscape:window-maximized="1"
     inkscape:current-layer="g3346"
     inkscape:showpageshadow="false" /><g
     id="g3346"
     inkscape:groupmode="layer"
     inkscape:label="WMiNI-znak-EN-RGB"
     transform="matrix(1.25,0,0,-1.25,-83.699485,528.01126)"
     style="display:inline"><path
       d="m 268.976,346.036 5.644,0 0,-5.687 -5.644,0 0,5.687 z m 0,13.371 7.901,0 0,-6.077 -7.901,0 0,6.077 z m -12.068,0 6.642,0 0,-31.907 -6.642,0 0,31.907 z"
       style="fill:#000000;fill-opacity:1;fill-rule:nonzero;stroke:none"
       id="path3348"
       inkscape:connector-curvature="0" /><g
       clip-path="url(#clipPath3354)"
       id="g3352"
       style="fill:#000000;fill-opacity:1"><g
         transform="translate(285.3845,338.4833)"
         id="g3358"
         style="fill:#000000;fill-opacity:1"><path
           inkscape:connector-curvature="0"
           id="path3360"
           style="fill:#000000;fill-opacity:1;fill-rule:nonzero;stroke:none"
           d="m 0,0 c 0,-3.604 1.91,-5.817 4.732,-5.817 2.17,0 3.429,1.171 4.384,2.734 l 0,6.208 C 8.161,4.688 6.902,5.86 4.732,5.86 1.91,5.86 0,3.603 0,0 m 9.464,8.552 0.304,2.474 5.773,0 0,-22.009 -5.773,0 -0.304,2.43 c -1.129,-1.562 -3.213,-2.865 -6.295,-2.865 -5.817,0 -9.681,4.819 -9.681,11.418 0,6.599 3.864,11.46 9.681,11.46 3.082,0 5.166,-1.302 6.295,-2.908" /></g><g
         transform="translate(326.1472,344.8642)"
         id="g3362"
         style="fill:#000000;fill-opacity:1"><path
           inkscape:connector-curvature="0"
           id="path3364"
           style="fill:#000000;fill-opacity:1;fill-rule:nonzero;stroke:none"
           d="m 0,0 -4.472,-3.299 c -0.911,1.65 -2.343,2.821 -4.514,2.821 -3.212,0 -4.993,-2.604 -4.993,-5.903 0,-3.256 1.824,-5.861 5.037,-5.861 2.17,0 3.646,1.173 4.644,2.822 l 4.341,-3.169 c -1.866,-3.213 -4.992,-5.21 -9.116,-5.21 -6.642,0 -11.373,4.82 -11.373,11.418 0,6.599 4.731,11.46 11.373,11.46 C -4.949,5.079 -1.997,3.169 0,0" /></g><g
         transform="translate(350.3699,327.4999)"
         id="g3366"
         style="fill:#000000;fill-opacity:1"><path
           inkscape:connector-curvature="0"
           id="path3368"
           style="fill:#000000;fill-opacity:1;fill-rule:nonzero;stroke:none"
           d="m 0,0 -5.773,0 -0.261,2.388 c -1.216,-1.607 -3.213,-2.823 -6.425,-2.823 -5.166,0 -7.901,3.778 -7.901,9.682 l 0,12.763 6.424,0 0,-12.416 c 0,-2.388 1.173,-3.994 3.343,-3.994 2.084,0 3.3,1.259 4.168,2.561 l 0,13.849 L 0,22.01 0,0 z" /></g><path
         inkscape:connector-curvature="0"
         id="path3370"
         style="fill:#000000;fill-opacity:1;fill-rule:nonzero;stroke:none"
         d="m 363.089,327.5 -6.425,0 0,32.992 6.425,0 0,-32.992 z" /><g
         transform="translate(377.4128,349.5097)"
         id="g3372"
         style="fill:#000000;fill-opacity:1"><path
           inkscape:connector-curvature="0"
           id="path3374"
           style="fill:#000000;fill-opacity:1;fill-rule:nonzero;stroke:none"
           d="m 0,0 6.295,0 0,-5.427 -6.295,0 0,-8.291 c 0,-1.867 1.172,-2.996 2.952,-2.996 1.346,0 2.214,0.391 2.865,0.695 l 1.606,-5.079 c -1.128,-0.738 -2.778,-1.346 -5.035,-1.346 -5.427,0 -8.813,3.083 -8.813,8.639 l 0,8.378 -3.95,0 0,5.427 3.95,0 0,7.293 L 0,7.293 0,0 z" /></g><g
         transform="translate(393.2136,317.5155)"
         id="g3376"
         style="fill:#000000;fill-opacity:1"><path
           inkscape:connector-curvature="0"
           id="path3378"
           style="fill:#000000;fill-opacity:1;fill-rule:nonzero;stroke:none"
           d="m 0,0 -7.337,0 8.813,15.541 -8.726,16.453 7.033,0 5.079,-11.026 5.209,11.026 7.033,0 L 0,0 z" /></g><g
         transform="translate(427.2898,338.4394)"
         id="g3380"
         style="fill:#000000;fill-opacity:1"><path
           inkscape:connector-curvature="0"
           id="path3382"
           style="fill:#000000;fill-opacity:1;fill-rule:nonzero;stroke:none"
           d="m 0,0 c 0,-3.386 2.083,-5.773 5.079,-5.773 3.038,0 5.165,2.387 5.165,5.773 0,3.473 -2.127,5.904 -5.165,5.904 C 2.083,5.904 0,3.473 0,0 m 16.713,0 c 0,-6.599 -4.949,-11.374 -11.634,-11.374 -6.685,0 -11.591,4.775 -11.591,11.374 0,6.599 4.906,11.504 11.591,11.504 6.685,0 11.634,-4.905 11.634,-11.504" /></g><g
         transform="translate(464.5789,359.1034)"
         id="g3384"
         style="fill:#000000;fill-opacity:1"><path
           inkscape:connector-curvature="0"
           id="path3386"
           style="fill:#000000;fill-opacity:1;fill-rule:nonzero;stroke:none"
           d="m 0,0 -2.301,-5.123 c -0.52,0.521 -1.388,0.912 -2.474,0.912 -1.737,0 -2.692,-1.172 -2.692,-3.126 l 0,-2.257 4.905,0 0,-5.427 -4.905,0 0,-16.583 -6.425,0 0,16.583 -3.82,0 0,5.427 3.82,0 0,1.91 c 0,5.296 3.343,9.073 8.77,9.073 C -2.952,1.389 -1.216,0.868 0,0" /></g><g
         transform="translate(503.2996,350.8554)"
         id="g3388"
         style="fill:#000000;fill-opacity:1"><path
           inkscape:connector-curvature="0"
           id="path3390"
           style="fill:#000000;fill-opacity:1;fill-rule:nonzero;stroke:none"
           d="m 0,0 6.468,9.116 0.174,0 0,-32.471 -6.642,0 L 0,0 z m -18.885,-9.984 0,-13.371 -6.641,0 0,32.471 0.173,0 19.666,-27.653 -3.56,-5.253 -0.348,0 -9.29,13.806 z" /></g><g
         transform="translate(521.8347,338.4833)"
         id="g3392"
         style="fill:#000000;fill-opacity:1"><path
           inkscape:connector-curvature="0"
           id="path3394"
           style="fill:#000000;fill-opacity:1;fill-rule:nonzero;stroke:none"
           d="m 0,0 c 0,-3.604 1.91,-5.817 4.731,-5.817 2.171,0 3.43,1.171 4.385,2.734 l 0,6.208 C 8.161,4.688 6.902,5.86 4.731,5.86 1.91,5.86 0,3.603 0,0 m 9.463,8.552 0.305,2.474 5.773,0 0,-22.009 -5.773,0 -0.305,2.43 c -1.128,-1.562 -3.212,-2.865 -6.294,-2.865 -5.817,0 -9.681,4.819 -9.681,11.418 0,6.599 3.864,11.46 9.681,11.46 3.082,0 5.166,-1.302 6.294,-2.908" /></g><g
         transform="translate(551.7,349.5097)"
         id="g3396"
         style="fill:#000000;fill-opacity:1"><path
           inkscape:connector-curvature="0"
           id="path3398"
           style="fill:#000000;fill-opacity:1;fill-rule:nonzero;stroke:none"
           d="m 0,0 6.295,0 0,-5.427 -6.295,0 0,-8.291 c 0,-1.867 1.172,-2.996 2.952,-2.996 1.346,0 2.214,0.391 2.865,0.695 l 1.606,-5.079 c -1.128,-0.738 -2.778,-1.346 -5.035,-1.346 -5.427,0 -8.813,3.083 -8.813,8.639 l 0,8.378 -3.95,0 0,5.427 3.95,0 0,7.293 L 0,7.293 0,0 z" /></g><g
         transform="translate(569.3679,347.5556)"
         id="g3400"
         style="fill:#000000;fill-opacity:1"><path
           inkscape:connector-curvature="0"
           id="path3402"
           style="fill:#000000;fill-opacity:1;fill-rule:nonzero;stroke:none"
           d="m 0,0 c 1.259,1.39 3.082,2.388 5.86,2.388 5.383,0 8.248,-3.821 8.248,-9.768 l 0,-12.676 -6.424,0 0,12.329 c 0,2.431 -1.346,4.081 -3.56,4.081 -1.997,0 -3.3,-1.259 -4.124,-2.561 l 0,-13.849 -6.426,0 0,32.993 6.426,0 L 0,0 z" /></g><g
         transform="translate(594.5886,340.7841)"
         id="g3404"
         style="fill:#000000;fill-opacity:1"><path
           inkscape:connector-curvature="0"
           id="path3406"
           style="fill:#000000;fill-opacity:1;fill-rule:nonzero;stroke:none"
           d="M 0,0 8.508,0 C 8.421,2.474 6.989,4.341 4.428,4.341 1.823,4.341 0.13,2.518 0,0 m 14.803,-1.997 0,-2.04 -14.847,0 c 0.174,-2.778 2.127,-4.385 5.253,-4.385 2.214,0 3.95,0.955 4.905,2.214 l 4.298,-3.256 c -2.171,-2.778 -5.296,-4.255 -9.42,-4.255 -6.902,0 -11.504,4.776 -11.504,11.374 0,6.599 4.515,11.504 11.114,11.504 6.902,0 10.201,-5.122 10.201,-11.156" /></g><g
         transform="translate(648.3738,340.1757)"
         id="g3408"
         style="fill:#000000;fill-opacity:1"><path
           inkscape:connector-curvature="0"
           id="path3410"
           style="fill:#000000;fill-opacity:1;fill-rule:nonzero;stroke:none"
           d="m 0,0 0,-12.676 -6.425,0 0,12.329 c 0,2.431 -1.216,4.08 -3.343,4.08 -1.91,0 -3.169,-1.214 -4.037,-2.56 l 0,-0.522 0,-13.327 -6.424,0 0,12.329 c 0,2.431 -1.216,4.08 -3.343,4.08 -1.91,0 -3.169,-1.258 -4.037,-2.56 l 0,-13.849 -6.425,0 0,22.01 5.729,0 L -28,6.902 c 1.128,1.564 3.212,2.866 6.294,2.866 3.083,0 5.297,-1.389 6.599,-3.777 1.563,2.214 3.82,3.777 7.206,3.777 C -2.778,9.768 0,5.947 0,0" /></g><g
         transform="translate(659.4851,338.4833)"
         id="g3412"
         style="fill:#000000;fill-opacity:1"><path
           inkscape:connector-curvature="0"
           id="path3414"
           style="fill:#000000;fill-opacity:1;fill-rule:nonzero;stroke:none"
           d="m 0,0 c 0,-3.604 1.91,-5.817 4.731,-5.817 2.171,0 3.43,1.171 4.385,2.734 l 0,6.208 C 8.161,4.688 6.902,5.86 4.731,5.86 1.91,5.86 0,3.603 0,0 m 9.463,8.552 0.305,2.474 5.773,0 0,-22.009 -5.773,0 -0.305,2.43 c -1.128,-1.562 -3.212,-2.865 -6.294,-2.865 -5.817,0 -9.681,4.819 -9.681,11.418 0,6.599 3.864,11.46 9.681,11.46 3.082,0 5.166,-1.302 6.294,-2.908" /></g><g
         transform="translate(689.3513,349.5097)"
         id="g3416"
         style="fill:#000000;fill-opacity:1"><path
           inkscape:connector-curvature="0"
           id="path3418"
           style="fill:#000000;fill-opacity:1;fill-rule:nonzero;stroke:none"
           d="m 0,0 6.295,0 0,-5.427 -6.295,0 0,-8.291 c 0,-1.867 1.172,-2.996 2.952,-2.996 1.346,0 2.214,0.391 2.865,0.695 l 1.606,-5.079 c -1.128,-0.738 -2.778,-1.346 -5.035,-1.346 -5.427,0 -8.813,3.083 -8.813,8.639 l 0,8.378 -3.95,0 0,5.427 3.95,0 0,7.293 L 0,7.293 0,0 z" /></g><path
         inkscape:connector-curvature="0"
         id="path3420"
         style="fill:#000000;fill-opacity:1;fill-rule:nonzero;stroke:none"
         d="m 707.193,327.5 -6.425,0 0,22.01 6.425,0 0,-22.01 z m 0.565,28.955 c 0,-2.17 -1.564,-3.776 -3.734,-3.776 -2.214,0 -3.777,1.606 -3.777,3.776 0,2.171 1.563,3.777 3.777,3.777 2.17,0 3.734,-1.606 3.734,-3.777" /><g
         transform="translate(732.4568,344.8642)"
         id="g3422"
         style="fill:#000000;fill-opacity:1"><path
           inkscape:connector-curvature="0"
           id="path3424"
           style="fill:#000000;fill-opacity:1;fill-rule:nonzero;stroke:none"
           d="m 0,0 -4.472,-3.299 c -0.911,1.65 -2.343,2.821 -4.514,2.821 -3.212,0 -4.993,-2.604 -4.993,-5.903 0,-3.256 1.824,-5.861 5.037,-5.861 2.17,0 3.646,1.173 4.644,2.822 l 4.341,-3.169 c -1.866,-3.213 -4.992,-5.21 -9.116,-5.21 -6.642,0 -11.373,4.82 -11.373,11.418 0,6.599 4.731,11.46 11.373,11.46 C -4.949,5.079 -1.997,3.169 0,0" /></g><g
         transform="translate(752.946,347.6425)"
         id="g3426"
         style="fill:#000000;fill-opacity:1"><path
           inkscape:connector-curvature="0"
           id="path3428"
           style="fill:#000000;fill-opacity:1;fill-rule:nonzero;stroke:none"
           d="m 0,0 -2.344,-4.515 c -1.388,0.955 -3.256,1.868 -5.556,1.868 -1.781,0 -2.779,-0.565 -2.779,-1.738 0,-1.085 0.782,-1.562 3.908,-2.301 4.688,-1.127 6.902,-3.211 6.902,-6.511 0,-4.428 -3.604,-7.38 -9.594,-7.38 -3.343,0 -6.512,0.955 -8.466,2.518 l 2.475,4.602 c 1.519,-1.259 3.559,-2.214 6.034,-2.214 1.954,0 3.126,0.565 3.126,1.866 0,1.172 -0.781,1.737 -3.646,2.432 -4.906,1.215 -7.164,2.995 -7.164,6.425 0,4.427 3.43,7.249 9.291,7.249 C -4.774,2.301 -1.866,1.39 0,0" /></g><g
         transform="translate(262.1609,287.8241)"
         id="g3430"
         style="fill:#000000;fill-opacity:1"><path
           inkscape:connector-curvature="0"
           id="path3432"
           style="fill:#000000;fill-opacity:1;fill-rule:nonzero;stroke:none"
           d="m 0,0 c 0,-3.604 1.91,-5.817 4.732,-5.817 2.17,0 3.429,1.171 4.384,2.734 l 0,6.208 C 8.161,4.688 6.902,5.86 4.732,5.86 1.91,5.86 0,3.603 0,0 m 9.464,8.552 0.304,2.474 5.774,0 0,-22.009 -5.774,0 -0.304,2.43 c -1.129,-1.562 -3.213,-2.865 -6.295,-2.865 -5.817,0 -9.681,4.819 -9.681,11.418 0,6.599 3.864,11.46 9.681,11.46 3.082,0 5.166,-1.302 6.295,-2.908" /></g><g
         transform="translate(304.3552,289.5165)"
         id="g3434"
         style="fill:#000000;fill-opacity:1"><path
           inkscape:connector-curvature="0"
           id="path3436"
           style="fill:#000000;fill-opacity:1;fill-rule:nonzero;stroke:none"
           d="m 0,0 0,-12.676 -6.424,0 0,12.329 c 0,2.431 -1.346,4.08 -3.56,4.08 -1.997,0 -3.299,-1.258 -4.124,-2.56 l 0,-13.849 -6.425,0 0,22.01 5.73,0 0.304,-2.432 c 1.129,1.607 3.256,2.866 6.251,2.866 C -2.864,9.768 0,5.947 0,0" /></g><g
         transform="translate(315.4255,287.8241)"
         id="g3438"
         style="fill:#000000;fill-opacity:1"><path
           inkscape:connector-curvature="0"
           id="path3440"
           style="fill:#000000;fill-opacity:1;fill-rule:nonzero;stroke:none"
           d="m 0,0 c 0,-3.604 1.996,-5.817 4.905,-5.817 2.214,0 3.56,1.171 4.515,2.734 l 0,6.165 C 8.465,4.688 7.119,5.86 4.905,5.86 1.996,5.86 0,3.603 0,0 m 15.802,-10.983 -5.731,0 -0.347,2.43 c -1.129,-1.562 -3.256,-2.865 -6.425,-2.865 -5.818,0 -9.811,4.819 -9.811,11.418 0,6.599 3.993,11.46 9.811,11.46 3.126,0 5.036,-1.215 6.121,-2.431 l 0,12.98 6.382,0 0,-32.992 z" /></g><path
         inkscape:connector-curvature="0"
         id="path3442"
         style="fill:#000000;fill-opacity:1;fill-rule:nonzero;stroke:none"
         d="m 355.317,276.841 -6.642,0 0,31.907 6.642,0 0,-31.907 z" /><g
         transform="translate(382.5789,289.5165)"
         id="g3444"
         style="fill:#000000;fill-opacity:1"><path
           inkscape:connector-curvature="0"
           id="path3446"
           style="fill:#000000;fill-opacity:1;fill-rule:nonzero;stroke:none"
           d="m 0,0 0,-12.676 -6.425,0 0,12.329 c 0,2.431 -1.346,4.08 -3.559,4.08 -1.997,0 -3.3,-1.258 -4.124,-2.56 l 0,-13.849 -6.425,0 0,22.01 5.729,0 0.305,-2.432 c 1.128,1.607 3.256,2.866 6.251,2.866 C -2.865,9.768 0,5.947 0,0" /></g><g
         transform="translate(404.2839,308.4442)"
         id="g3448"
         style="fill:#000000;fill-opacity:1"><path
           inkscape:connector-curvature="0"
           id="path3450"
           style="fill:#000000;fill-opacity:1;fill-rule:nonzero;stroke:none"
           d="m 0,0 -2.301,-5.123 c -0.52,0.521 -1.388,0.912 -2.474,0.912 -1.737,0 -2.692,-1.172 -2.692,-3.126 l 0,-2.257 4.905,0 0,-5.427 -4.905,0 0,-16.583 -6.425,0 0,16.583 -3.82,0 0,5.427 3.82,0 0,1.91 c 0,5.296 3.343,9.073 8.77,9.073 C -2.952,1.389 -1.216,0.868 0,0" /></g><g
         transform="translate(411.3591,287.7802)"
         id="g3452"
         style="fill:#000000;fill-opacity:1"><path
           inkscape:connector-curvature="0"
           id="path3454"
           style="fill:#000000;fill-opacity:1;fill-rule:nonzero;stroke:none"
           d="m 0,0 c 0,-3.386 2.083,-5.773 5.079,-5.773 3.038,0 5.166,2.387 5.166,5.773 0,3.473 -2.128,5.904 -5.166,5.904 C 2.083,5.904 0,3.473 0,0 m 16.713,0 c 0,-6.599 -4.949,-11.374 -11.634,-11.374 -6.685,0 -11.591,4.775 -11.591,11.374 0,6.599 4.906,11.504 11.591,11.504 6.685,0 11.634,-4.905 11.634,-11.504" /></g><g
         transform="translate(445.3044,292.9032)"
         id="g3456"
         style="fill:#000000;fill-opacity:1"><path
           inkscape:connector-curvature="0"
           id="path3458"
           style="fill:#000000;fill-opacity:1;fill-rule:nonzero;stroke:none"
           d="m 0,0 -0.521,0 c -2.561,0 -4.21,-1.259 -5.469,-2.909 l 0,-13.153 -6.425,0 0,22.009 5.729,0 0.348,-2.909 C -5.253,4.861 -3.038,6.381 0,6.381 L 0,0 z" /></g><g
         transform="translate(483.4626,289.5165)"
         id="g3460"
         style="fill:#000000;fill-opacity:1"><path
           inkscape:connector-curvature="0"
           id="path3462"
           style="fill:#000000;fill-opacity:1;fill-rule:nonzero;stroke:none"
           d="m 0,0 0,-12.676 -6.425,0 0,12.329 c 0,2.431 -1.216,4.08 -3.343,4.08 -1.91,0 -3.169,-1.214 -4.037,-2.56 l 0,-0.522 0,-13.327 -6.424,0 0,12.329 c 0,2.431 -1.216,4.08 -3.343,4.08 -1.91,0 -3.169,-1.258 -4.037,-2.56 l 0,-13.849 -6.425,0 0,22.01 5.729,0 L -28,6.902 c 1.128,1.564 3.212,2.866 6.294,2.866 3.082,0 5.297,-1.389 6.599,-3.777 1.563,2.214 3.82,3.777 7.206,3.777 C -2.778,9.768 0,5.947 0,0" /></g><g
         transform="translate(494.574,287.8241)"
         id="g3464"
         style="fill:#000000;fill-opacity:1"><path
           inkscape:connector-curvature="0"
           id="path3466"
           style="fill:#000000;fill-opacity:1;fill-rule:nonzero;stroke:none"
           d="m 0,0 c 0,-3.604 1.909,-5.817 4.731,-5.817 2.171,0 3.43,1.171 4.385,2.734 l 0,6.208 C 8.161,4.688 6.902,5.86 4.731,5.86 1.909,5.86 0,3.603 0,0 m 9.463,8.552 0.305,2.474 5.773,0 0,-22.009 -5.773,0 -0.305,2.43 c -1.128,-1.562 -3.212,-2.865 -6.294,-2.865 -5.817,0 -9.681,4.819 -9.681,11.418 0,6.599 3.864,11.46 9.681,11.46 3.082,0 5.166,-1.302 6.294,-2.908" /></g><g
         transform="translate(524.4402,298.8505)"
         id="g3468"
         style="fill:#000000;fill-opacity:1"><path
           inkscape:connector-curvature="0"
           id="path3470"
           style="fill:#000000;fill-opacity:1;fill-rule:nonzero;stroke:none"
           d="m 0,0 6.295,0 0,-5.427 -6.295,0 0,-8.291 c 0,-1.867 1.172,-2.996 2.952,-2.996 1.346,0 2.214,0.391 2.865,0.695 l 1.606,-5.079 c -1.128,-0.738 -2.778,-1.346 -5.035,-1.346 -5.427,0 -8.813,3.083 -8.813,8.639 l 0,8.378 -3.95,0 0,5.427 3.95,0 0,7.293 L 0,7.293 0,0 z" /></g><path
         inkscape:connector-curvature="0"
         id="path3472"
         style="fill:#000000;fill-opacity:1;fill-rule:nonzero;stroke:none"
         d="m 542.282,276.841 -6.425,0 0,22.01 6.425,0 0,-22.01 z m 0.564,28.955 c 0,-2.17 -1.563,-3.777 -3.733,-3.777 -2.214,0 -3.777,1.607 -3.777,3.777 0,2.171 1.563,3.777 3.777,3.777 2.17,0 3.733,-1.606 3.733,-3.777" /><g
         transform="translate(553.6111,287.7802)"
         id="g3474"
         style="fill:#000000;fill-opacity:1"><path
           inkscape:connector-curvature="0"
           id="path3476"
           style="fill:#000000;fill-opacity:1;fill-rule:nonzero;stroke:none"
           d="m 0,0 c 0,-3.386 2.083,-5.773 5.079,-5.773 3.038,0 5.166,2.387 5.166,5.773 0,3.473 -2.128,5.904 -5.166,5.904 C 2.083,5.904 0,3.473 0,0 m 16.713,0 c 0,-6.599 -4.949,-11.374 -11.634,-11.374 -6.685,0 -11.591,4.775 -11.591,11.374 0,6.599 4.906,11.504 11.591,11.504 6.685,0 11.634,-4.905 11.634,-11.504" /></g><g
         transform="translate(595.6746,289.5165)"
         id="g3478"
         style="fill:#000000;fill-opacity:1"><path
           inkscape:connector-curvature="0"
           id="path3480"
           style="fill:#000000;fill-opacity:1;fill-rule:nonzero;stroke:none"
           d="m 0,0 0,-12.676 -6.425,0 0,12.329 c 0,2.431 -1.346,4.08 -3.559,4.08 -1.997,0 -3.3,-1.258 -4.124,-2.56 l 0,-13.849 -6.425,0 0,22.01 5.729,0 0.305,-2.432 c 1.128,1.607 3.256,2.866 6.251,2.866 C -2.865,9.768 0,5.947 0,0" /></g><g
         transform="translate(634.613,286.5644)"
         id="g3482"
         style="fill:#000000;fill-opacity:1"><path
           inkscape:connector-curvature="0"
           id="path3484"
           style="fill:#000000;fill-opacity:1;fill-rule:nonzero;stroke:none"
           d="m 0,0 c 0,-4.471 -2.431,-7.9 -6.642,-9.42 l 0,17.669 C -1.649,6.512 0,3.907 0,0 m -11.287,16.757 0,5.991 c 4.342,-0.087 8.335,-1.476 10.983,-3.43 l -3.213,-5.599 c -1.953,1.519 -4.644,2.908 -7.77,3.038 M -16.713,4.472 c -5.079,1.823 -6.685,4.645 -6.685,8.422 0,4.21 2.604,7.553 6.685,9.029 l 0,-17.451 z m 4.645,-8.769 0,-5.991 c -4.863,0 -9.246,1.519 -12.372,4.255 l 3.603,5.47 c 2.083,-2.214 5.557,-3.647 8.769,-3.734" /></g><g
         transform="translate(659.1824,294.205)"
         id="g3486"
         style="fill:#000000;fill-opacity:1"><path
           inkscape:connector-curvature="0"
           id="path3488"
           style="fill:#000000;fill-opacity:1;fill-rule:nonzero;stroke:none"
           d="m 0,0 -4.472,-3.299 c -0.911,1.65 -2.343,2.821 -4.514,2.821 -3.212,0 -4.993,-2.604 -4.993,-5.903 0,-3.256 1.824,-5.861 5.037,-5.861 2.17,0 3.646,1.173 4.644,2.822 l 4.341,-3.169 c -1.866,-3.213 -4.992,-5.21 -9.116,-5.21 -6.642,0 -11.373,4.82 -11.373,11.418 0,6.599 4.731,11.46 11.373,11.46 C -4.949,5.079 -1.997,3.169 0,0" /></g><path
         inkscape:connector-curvature="0"
         id="path3490"
         style="fill:#000000;fill-opacity:1;fill-rule:nonzero;stroke:none"
         d="m 669.687,276.841 -6.425,0 0,22.01 6.425,0 0,-22.01 z m 0.565,28.955 c 0,-2.17 -1.564,-3.777 -3.734,-3.777 -2.214,0 -3.777,1.607 -3.777,3.777 0,2.171 1.563,3.777 3.777,3.777 2.17,0 3.734,-1.606 3.734,-3.777" /><g
         transform="translate(681.0173,290.1249)"
         id="g3492"
         style="fill:#000000;fill-opacity:1"><path
           inkscape:connector-curvature="0"
           id="path3494"
           style="fill:#000000;fill-opacity:1;fill-rule:nonzero;stroke:none"
           d="M 0,0 8.508,0 C 8.421,2.474 6.989,4.341 4.428,4.341 1.823,4.341 0.13,2.518 0,0 m 14.803,-1.997 0,-2.04 -14.847,0 c 0.174,-2.778 2.127,-4.385 5.253,-4.385 2.214,0 3.95,0.955 4.905,2.214 l 4.298,-3.256 c -2.171,-2.778 -5.296,-4.255 -9.42,-4.255 -6.902,0 -11.504,4.776 -11.504,11.374 0,6.599 4.515,11.504 11.114,11.504 6.902,0 10.201,-5.122 10.201,-11.156" /></g><g
         transform="translate(721.3005,289.5165)"
         id="g3496"
         style="fill:#000000;fill-opacity:1"><path
           inkscape:connector-curvature="0"
           id="path3498"
           style="fill:#000000;fill-opacity:1;fill-rule:nonzero;stroke:none"
           d="m 0,0 0,-12.676 -6.425,0 0,12.329 c 0,2.431 -1.346,4.08 -3.559,4.08 -1.997,0 -3.3,-1.258 -4.124,-2.56 l 0,-13.849 -6.425,0 0,22.01 5.729,0 0.305,-2.432 c 1.128,1.607 3.256,2.866 6.251,2.866 C -2.865,9.768 0,5.947 0,0" /></g><g
         transform="translate(746.3484,294.205)"
         id="g3500"
         style="fill:#000000;fill-opacity:1"><path
           inkscape:connector-curvature="0"
           id="path3502"
           style="fill:#000000;fill-opacity:1;fill-rule:nonzero;stroke:none"
           d="m 0,0 -4.472,-3.299 c -0.911,1.65 -2.343,2.821 -4.514,2.821 -3.212,0 -4.993,-2.604 -4.993,-5.903 0,-3.256 1.824,-5.861 5.037,-5.861 2.17,0 3.646,1.173 4.644,2.822 l 4.341,-3.169 c -1.866,-3.213 -4.992,-5.21 -9.116,-5.21 -6.642,0 -11.373,4.82 -11.373,11.418 0,6.599 4.731,11.46 11.373,11.46 C -4.949,5.079 -1.997,3.169 0,0" /></g><g
         transform="translate(755.6375,290.1249)"
         id="g3504"
         style="fill:#000000;fill-opacity:1"><path
           inkscape:connector-curvature="0"
           id="path3506"
           style="fill:#000000;fill-opacity:1;fill-rule:nonzero;stroke:none"
           d="M 0,0 8.508,0 C 8.421,2.474 6.989,4.341 4.428,4.341 1.823,4.341 0.13,2.518 0,0 m 14.803,-1.997 0,-2.04 -14.847,0 c 0.174,-2.778 2.127,-4.385 5.253,-4.385 2.214,0 3.95,0.955 4.905,2.214 l 4.298,-3.256 c -2.171,-2.778 -5.296,-4.255 -9.42,-4.255 -6.902,0 -11.504,4.776 -11.504,11.374 0,6.599 4.515,11.504 11.114,11.504 6.902,0 10.201,-5.122 10.201,-11.156" /></g><g
         transform="translate(271.407,247.3651)"
         id="g3508"
         style="fill:#000000;fill-opacity:1"><path
           inkscape:connector-curvature="0"
           id="path3510"
           style="fill:#000000;fill-opacity:1;fill-rule:nonzero;stroke:none"
           d="m 0,0 c 0.045,-0.288 0.045,-0.59 0,-0.832 l -1.088,-0.151 -2.753,-9.149 -1.527,0 -2.132,8.241 -0.061,0.605 -0.03,0 -0.06,-0.605 -2.132,-8.241 -1.528,0 -2.752,9.149 -1.088,0.151 c -0.046,0.242 -0.046,0.544 0,0.832 l 3.553,0 c 0.045,-0.288 0.045,-0.59 0,-0.832 l -1.104,-0.151 2.087,-7.41 0.06,-0.605 0.031,0 0.06,0.605 2.102,8.242 1.618,0 2.057,-8.242 0.06,-0.605 0.03,0 0.061,0.605 2.086,7.425 -1.073,0.136 c -0.045,0.242 -0.045,0.544 0,0.832 L 0,0 z" /></g><g
         transform="translate(277.7947,245.6259)"
         id="g3512"
         style="fill:#000000;fill-opacity:1"><path
           inkscape:connector-curvature="0"
           id="path3514"
           style="fill:#000000;fill-opacity:1;fill-rule:nonzero;stroke:none"
           d="m 0,0 -0.06,0.604 -0.03,0 L -0.151,0 l -1.527,-3.932 3.175,0 L 0,0 z m 5.308,-7.561 c 0.045,-0.242 0.045,-0.544 0,-0.832 l -3.554,0 c -0.045,0.288 -0.045,0.59 0,0.832 l 1.074,0.136 -0.908,2.36 -4.037,0 -0.922,-2.345 1.103,-0.151 c 0.046,-0.242 0.046,-0.544 0,-0.832 l -3.553,0 c -0.045,0.288 -0.045,0.59 0,0.832 l 1.104,0.151 3.342,8.212 -0.908,0.105 c -0.045,0.242 -0.045,0.544 0,0.832 l 2.571,0 3.63,-9.164 1.058,-0.136 z" /></g><g
         transform="translate(287.7649,242.8134)"
         id="g3516"
         style="fill:#000000;fill-opacity:1"><path
           inkscape:connector-curvature="0"
           id="path3518"
           style="fill:#000000;fill-opacity:1;fill-rule:nonzero;stroke:none"
           d="m 0,0 c 0.514,-0.046 1.043,-0.061 1.618,-0.061 1.104,0 1.936,0.53 1.936,1.74 0,1.36 -0.832,1.889 -1.936,1.889 C 1.043,3.568 0.514,3.554 0,3.508 L 0,0 z m 6.336,-4.748 c 0.045,-0.242 0.045,-0.545 0,-0.832 l -1.996,0 -3.04,4.385 C 0.847,-1.18 0.408,-1.165 0,-1.135 l 0,-3.463 1.134,-0.15 c 0.046,-0.242 0.046,-0.545 0,-0.832 l -3.553,0 c -0.046,0.287 -0.046,0.59 0,0.832 l 1.134,0.15 0,8.166 -1.134,0.152 c -0.046,0.242 -0.046,0.544 0,0.832 l 1.134,0 c 0.922,0 1.829,0.15 2.903,0.15 1.845,0 3.297,-0.982 3.297,-3.023 0,-1.497 -0.908,-2.42 -2.208,-2.753 l 2.495,-3.524 1.134,-0.15 z" /></g><g
         transform="translate(302.9363,239.8944)"
         id="g3520"
         style="fill:#000000;fill-opacity:1"><path
           inkscape:connector-curvature="0"
           id="path3522"
           style="fill:#000000;fill-opacity:1;fill-rule:nonzero;stroke:none"
           d="m 0,0 c 0,-1.769 -1.194,-2.813 -3.372,-2.813 -1.089,0 -1.966,0.303 -2.677,0.666 l 0,2.298 c 0.257,0.046 0.726,0.046 0.983,0 l 0.151,-1.542 c 0.484,-0.181 1.014,-0.288 1.543,-0.288 1.134,0 2.071,0.454 2.071,1.679 0,2.435 -4.778,1.573 -4.778,4.976 0,1.572 1.058,2.645 3.039,2.645 1.089,0 1.815,-0.302 2.525,-0.665 l 0,-2.299 c -0.256,-0.045 -0.725,-0.045 -0.982,0 L -1.648,6.23 C -2.072,6.382 -2.541,6.487 -3.04,6.487 -4.234,6.487 -4.794,6.034 -4.794,4.976 -4.794,2.662 0,3.372 0,0" /></g><g
         transform="translate(311.1052,245.6259)"
         id="g3524"
         style="fill:#000000;fill-opacity:1"><path
           inkscape:connector-curvature="0"
           id="path3526"
           style="fill:#000000;fill-opacity:1;fill-rule:nonzero;stroke:none"
           d="m 0,0 -0.061,0.604 -0.03,0 -0.06,-0.604 -1.528,-3.932 3.176,0 L 0,0 z m 5.308,-7.561 c 0.046,-0.242 0.046,-0.544 0,-0.832 l -3.554,0 c -0.045,0.288 -0.045,0.59 0,0.832 l 1.074,0.136 -0.907,2.36 -4.038,0 -0.922,-2.345 1.103,-0.151 c 0.046,-0.242 0.046,-0.544 0,-0.832 l -3.553,0 c -0.045,0.288 -0.045,0.59 0,0.832 l 1.104,0.151 3.342,8.212 -0.907,0.105 c -0.046,0.242 -0.046,0.544 0,0.832 l 2.57,0 3.629,-9.164 1.059,-0.136 z" /></g><g
         transform="translate(332.1443,247.3651)"
         id="g3528"
         style="fill:#000000;fill-opacity:1"><path
           inkscape:connector-curvature="0"
           id="path3530"
           style="fill:#000000;fill-opacity:1;fill-rule:nonzero;stroke:none"
           d="m 0,0 c 0.046,-0.288 0.046,-0.59 0,-0.832 l -1.089,-0.151 -2.752,-9.149 -1.527,0 -2.132,8.241 -0.061,0.605 -0.03,0 -0.06,-0.605 -2.132,-8.241 -1.528,0 -2.752,9.149 -1.088,0.151 c -0.046,0.242 -0.046,0.544 0,0.832 l 3.553,0 c 0.045,-0.288 0.045,-0.59 0,-0.832 l -1.104,-0.151 2.087,-7.41 0.06,-0.605 0.031,0 0.06,0.605 2.102,8.242 1.618,0 2.057,-8.242 0.06,-0.605 0.03,0 0.061,0.605 2.087,7.425 -1.074,0.136 c -0.045,0.242 -0.045,0.544 0,0.832 L 0,0 z" /></g><g
         transform="translate(349.3757,247.3651)"
         id="g3532"
         style="fill:#000000;fill-opacity:1"><path
           inkscape:connector-curvature="0"
           id="path3534"
           style="fill:#000000;fill-opacity:1;fill-rule:nonzero;stroke:none"
           d="m 0,0 c 0.046,-0.288 0.046,-0.59 0,-0.832 l -1.134,-0.151 0,-5.595 c 0,-2.495 -1.497,-3.705 -3.856,-3.705 -2.359,0 -3.856,1.21 -3.856,3.705 l 0,5.595 -1.134,0.151 c -0.045,0.242 -0.045,0.544 0,0.832 l 3.553,0 c 0.046,-0.288 0.046,-0.59 0,-0.832 l -1.134,-0.151 0,-5.595 c 0,-1.663 0.817,-2.571 2.571,-2.571 1.755,0 2.571,0.908 2.571,2.571 l 0,5.595 -1.135,0.151 c -0.045,0.242 -0.045,0.544 0,0.832 L 0,0 z" /></g><g
         transform="translate(362.9753,247.3651)"
         id="g3536"
         style="fill:#000000;fill-opacity:1"><path
           inkscape:connector-curvature="0"
           id="path3538"
           style="fill:#000000;fill-opacity:1;fill-rule:nonzero;stroke:none"
           d="m 0,0 c 0.046,-0.288 0.046,-0.59 0,-0.832 l -1.134,-0.151 0,-9.149 -1.845,0 -4.99,8.332 -0.166,0.605 -0.03,0 0,-7.954 1.134,-0.151 c 0.045,-0.242 0.045,-0.545 0,-0.832 l -3.554,0 c -0.045,0.287 -0.045,0.59 0,0.832 l 1.134,0.151 0,8.166 -1.134,0.151 c -0.045,0.242 -0.045,0.544 0,0.832 l 2.98,0 4.974,-8.317 0.182,-0.756 0.03,0 0,8.09 -1.135,0.151 c -0.045,0.242 -0.045,0.544 0,0.832 L 0,0 z" /></g><g
         transform="translate(369.241,238.0653)"
         id="g3540"
         style="fill:#000000;fill-opacity:1"><path
           inkscape:connector-curvature="0"
           id="path3542"
           style="fill:#000000;fill-opacity:1;fill-rule:nonzero;stroke:none"
           d="m 0,0 c 0.046,-0.242 0.046,-0.545 0,-0.832 l -3.554,0 c -0.045,0.287 -0.045,0.59 0,0.832 l 1.135,0.15 0,8.166 -1.135,0.152 c -0.045,0.242 -0.045,0.544 0,0.832 L 0,9.3 C 0.046,9.012 0.046,8.71 0,8.468 L -1.134,8.316 -1.134,0.15 0,0 z" /></g><g
         transform="translate(382.2175,247.3651)"
         id="g3544"
         style="fill:#000000;fill-opacity:1"><path
           inkscape:connector-curvature="0"
           id="path3546"
           style="fill:#000000;fill-opacity:1;fill-rule:nonzero;stroke:none"
           d="m 0,0 c 0.045,-0.288 0.045,-0.59 0,-0.832 l -1.073,-0.136 -3.584,-9.164 -1.285,0 -3.479,9.164 -1.073,0.136 c -0.046,0.242 -0.046,0.544 0,0.832 l 3.554,0 c 0.044,-0.288 0.044,-0.59 0,-0.832 l -1.075,-0.136 2.692,-7.425 0.06,-0.605 0.031,0 0.06,0.605 2.752,7.41 -1.103,0.151 c -0.045,0.242 -0.045,0.544 0,0.832 L 0,0 z" /></g><g
         transform="translate(390.9031,239.6825)"
         id="g3548"
         style="fill:#000000;fill-opacity:1"><path
           inkscape:connector-curvature="0"
           id="path3550"
           style="fill:#000000;fill-opacity:1;fill-rule:nonzero;stroke:none"
           d="m 0,0 c 0.257,0.046 0.726,0.046 0.982,0 l 0,-2.449 -7.257,0 c -0.046,0.287 -0.046,0.59 0,0.832 l 1.133,0.15 0,8.166 -1.133,0.152 c -0.046,0.242 -0.046,0.544 0,0.832 l 6.956,0 0,-2.451 c -0.257,-0.045 -0.727,-0.045 -0.984,0 l -0.121,1.316 -3.432,0 0,-3.342 3.553,0.091 0,-1.134 -3.553,0.091 0,-3.569 3.735,0 L 0,0 z" /></g><g
         transform="translate(397.0613,242.8134)"
         id="g3552"
         style="fill:#000000;fill-opacity:1"><path
           inkscape:connector-curvature="0"
           id="path3554"
           style="fill:#000000;fill-opacity:1;fill-rule:nonzero;stroke:none"
           d="m 0,0 c 0.514,-0.046 1.043,-0.061 1.618,-0.061 1.104,0 1.936,0.53 1.936,1.74 0,1.36 -0.832,1.889 -1.936,1.889 C 1.043,3.568 0.514,3.554 0,3.508 L 0,0 z m 6.336,-4.748 c 0.045,-0.242 0.045,-0.545 0,-0.832 l -1.996,0 -3.039,4.385 C 0.847,-1.18 0.408,-1.165 0,-1.135 l 0,-3.463 1.134,-0.15 c 0.046,-0.242 0.046,-0.545 0,-0.832 l -3.554,0 c -0.045,0.287 -0.045,0.59 0,0.832 l 1.135,0.15 0,8.166 -1.135,0.152 c -0.045,0.242 -0.045,0.544 0,0.832 l 1.135,0 c 0.922,0 1.829,0.15 2.903,0.15 1.845,0 3.296,-0.982 3.296,-3.023 0,-1.497 -0.907,-2.42 -2.207,-2.753 l 2.495,-3.524 1.134,-0.15 z" /></g><g
         transform="translate(412.2322,239.8944)"
         id="g3556"
         style="fill:#000000;fill-opacity:1"><path
           inkscape:connector-curvature="0"
           id="path3558"
           style="fill:#000000;fill-opacity:1;fill-rule:nonzero;stroke:none"
           d="m 0,0 c 0,-1.769 -1.194,-2.813 -3.372,-2.813 -1.089,0 -1.966,0.303 -2.677,0.666 l 0,2.298 c 0.257,0.046 0.726,0.046 0.984,0 l 0.15,-1.542 c 0.484,-0.181 1.014,-0.288 1.543,-0.288 1.134,0 2.071,0.454 2.071,1.679 0,2.435 -4.778,1.573 -4.778,4.976 0,1.572 1.058,2.645 3.039,2.645 1.089,0 1.815,-0.302 2.525,-0.665 l 0,-2.299 c -0.256,-0.045 -0.725,-0.045 -0.982,0 L -1.648,6.23 C -2.072,6.382 -2.541,6.487 -3.04,6.487 -4.234,6.487 -4.794,6.034 -4.794,4.976 -4.794,2.662 0,3.372 0,0" /></g><g
         transform="translate(418.9949,238.0653)"
         id="g3560"
         style="fill:#000000;fill-opacity:1"><path
           inkscape:connector-curvature="0"
           id="path3562"
           style="fill:#000000;fill-opacity:1;fill-rule:nonzero;stroke:none"
           d="m 0,0 c 0.046,-0.242 0.046,-0.545 0,-0.832 l -3.554,0 c -0.045,0.287 -0.045,0.59 0,0.832 l 1.135,0.15 0,8.166 -1.135,0.152 c -0.045,0.242 -0.045,0.544 0,0.832 L 0,9.3 C 0.046,9.012 0.046,8.71 0,8.468 L -1.134,8.316 -1.134,0.15 0,0 z" /></g><g
         transform="translate(429.6892,244.9149)"
         id="g3564"
         style="fill:#000000;fill-opacity:1"><path
           inkscape:connector-curvature="0"
           id="path3566"
           style="fill:#000000;fill-opacity:1;fill-rule:nonzero;stroke:none"
           d="m 0,0 c -0.257,-0.045 -0.726,-0.045 -0.983,0 l -0.121,1.315 -2.298,0 0,-8.014 0.014,0 1.135,-0.151 c 0.045,-0.242 0.045,-0.545 0,-0.832 l -3.554,0 c -0.046,0.287 -0.046,0.59 0,0.832 l 1.12,0.151 0,8.014 -2.299,0 L -7.107,0 C -7.364,-0.045 -7.833,-0.045 -8.09,0 l 0,2.45 L 0,2.45 0,0 z" /></g><g
         transform="translate(437.571,238.2157)"
         id="g3568"
         style="fill:#000000;fill-opacity:1"><path
           inkscape:connector-curvature="0"
           id="path3570"
           style="fill:#000000;fill-opacity:1;fill-rule:nonzero;stroke:none"
           d="m 0,0 1.135,-0.15 c 0.045,-0.243 0.045,-0.545 0,-0.832 l -3.554,0 c -0.046,0.287 -0.046,0.589 0,0.832 l 1.134,0.15 0,2.632 -2.964,5.534 -1.194,0.151 c -0.046,0.243 -0.046,0.544 0,0.832 l 3.553,0 c 0.045,-0.288 0.045,-0.589 0,-0.832 l -0.953,-0.135 2.148,-4.25 0.06,-0.756 0.031,0 0.06,0.756 2.148,4.234 -1.014,0.151 c -0.045,0.243 -0.045,0.544 0,0.832 l 3.554,0 C 4.188,8.861 4.188,8.56 4.144,8.317 L 2.949,8.182 0,2.632 0,0 z" /></g><g
         transform="translate(457.8552,242.2987)"
         id="g3572"
         style="fill:#000000;fill-opacity:1"><path
           inkscape:connector-curvature="0"
           id="path3574"
           style="fill:#000000;fill-opacity:1;fill-rule:nonzero;stroke:none"
           d="m 0,0 c 0,2.873 -1.693,4.083 -3.554,4.083 -1.859,0 -3.552,-1.21 -3.552,-4.083 0,-2.873 1.693,-4.083 3.552,-4.083 C -1.693,-4.083 0,-2.873 0,0 m 1.361,0 c 0,-3.916 -2.525,-5.217 -4.915,-5.217 -2.388,0 -4.914,1.301 -4.914,5.217 0,3.917 2.526,5.217 4.914,5.217 2.39,0 4.915,-1.3 4.915,-5.217" /></g><g
         transform="translate(469.3083,244.9149)"
         id="g3576"
         style="fill:#000000;fill-opacity:1"><path
           inkscape:connector-curvature="0"
           id="path3578"
           style="fill:#000000;fill-opacity:1;fill-rule:nonzero;stroke:none"
           d="m 0,0 c -0.257,-0.045 -0.727,-0.045 -0.983,0 l -0.121,1.315 -3.433,0 0,-3.493 3.554,0.091 0,-1.134 -3.554,0.091 0,-3.569 1.588,-0.151 c 0.046,-0.242 0.046,-0.545 0,-0.832 l -4.007,0 c -0.046,0.287 -0.046,0.59 0,0.832 l 1.134,0.151 0,8.166 -1.134,0.151 c -0.046,0.242 -0.046,0.544 0,0.832 L 0,2.45 0,0 z" /></g><g
         transform="translate(484.5105,244.9149)"
         id="g3580"
         style="fill:#000000;fill-opacity:1"><path
           inkscape:connector-curvature="0"
           id="path3582"
           style="fill:#000000;fill-opacity:1;fill-rule:nonzero;stroke:none"
           d="m 0,0 c -0.257,-0.045 -0.726,-0.045 -0.983,0 l -0.121,1.315 -2.298,0 0,-8.014 0.014,0 1.135,-0.151 c 0.045,-0.242 0.045,-0.545 0,-0.832 l -3.554,0 c -0.046,0.287 -0.046,0.59 0,0.832 l 1.12,0.151 0,8.014 -2.299,0 L -7.107,0 C -7.364,-0.045 -7.833,-0.045 -8.09,0 l 0,2.45 L 0,2.45 0,0 z" /></g><g
         transform="translate(493.3005,239.6825)"
         id="g3584"
         style="fill:#000000;fill-opacity:1"><path
           inkscape:connector-curvature="0"
           id="path3586"
           style="fill:#000000;fill-opacity:1;fill-rule:nonzero;stroke:none"
           d="m 0,0 c 0.257,0.046 0.726,0.046 0.982,0 l 0,-2.449 -7.257,0 c -0.046,0.287 -0.046,0.59 0,0.832 l 1.133,0.15 0,8.166 -1.133,0.152 c -0.046,0.242 -0.046,0.544 0,0.832 l 6.956,0 0,-2.451 c -0.258,-0.045 -0.727,-0.045 -0.984,0 l -0.121,1.316 -3.432,0 0,-3.342 3.553,0.091 0,-1.134 -3.553,0.091 0,-3.569 3.735,0 L 0,0 z" /></g><g
         transform="translate(505.3562,246.8505)"
         id="g3588"
         style="fill:#000000;fill-opacity:1"><path
           inkscape:connector-curvature="0"
           id="path3590"
           style="fill:#000000;fill-opacity:1;fill-rule:nonzero;stroke:none"
           d="m 0,0 0,-2.299 c -0.257,-0.045 -0.726,-0.045 -0.983,0 l -0.151,1.528 c -0.559,0.181 -1.21,0.302 -1.845,0.302 -2.011,0 -3.553,-1.21 -3.553,-4.083 0,-2.873 1.693,-4.083 3.553,-4.083 1.149,0 2.298,0.394 2.979,0.832 l 0,-1.301 c -0.711,-0.362 -1.739,-0.665 -2.979,-0.665 -2.389,0 -4.915,1.301 -4.915,5.217 0,3.917 2.526,5.217 4.915,5.217 C -1.739,0.665 -0.711,0.363 0,0" /></g><g
         transform="translate(519.0759,238.0653)"
         id="g3592"
         style="fill:#000000;fill-opacity:1"><path
           inkscape:connector-curvature="0"
           id="path3594"
           style="fill:#000000;fill-opacity:1;fill-rule:nonzero;stroke:none"
           d="m 0,0 c 0.045,-0.242 0.045,-0.545 0,-0.832 l -3.554,0 c -0.045,0.287 -0.045,0.59 0,0.832 l 1.134,0.15 0,3.63 -5.746,0 0,-3.63 L -7.031,0 c 0.045,-0.242 0.045,-0.545 0,-0.832 l -3.554,0 c -0.046,0.287 -0.046,0.59 0,0.832 l 1.134,0.15 0,8.166 -1.134,0.152 c -0.046,0.242 -0.046,0.544 0,0.832 l 3.554,0 c 0.045,-0.288 0.045,-0.59 0,-0.832 l -1.135,-0.152 0,-3.402 5.746,0 0,3.402 -1.134,0.152 c -0.045,0.242 -0.045,0.544 0,0.832 L 0,9.3 C 0.045,9.012 0.045,8.71 0,8.468 L -1.134,8.316 -1.134,0.15 0,0 z" /></g><g
         transform="translate(532.7664,247.3651)"
         id="g3596"
         style="fill:#000000;fill-opacity:1"><path
           inkscape:connector-curvature="0"
           id="path3598"
           style="fill:#000000;fill-opacity:1;fill-rule:nonzero;stroke:none"
           d="m 0,0 c 0.046,-0.288 0.046,-0.59 0,-0.832 l -1.134,-0.151 0,-9.149 -1.845,0 -4.99,8.332 -0.166,0.605 -0.03,0 0,-7.954 1.134,-0.151 c 0.045,-0.242 0.045,-0.545 0,-0.832 l -3.554,0 c -0.045,0.287 -0.045,0.59 0,0.832 l 1.134,0.151 0,8.166 -1.134,0.151 c -0.045,0.242 -0.045,0.544 0,0.832 l 2.98,0 4.974,-8.317 0.182,-0.756 0.03,0 0,8.09 -1.135,0.151 c -0.045,0.242 -0.045,0.544 0,0.832 L 0,0 z" /></g><g
         transform="translate(544.2185,242.2987)"
         id="g3600"
         style="fill:#000000;fill-opacity:1"><path
           inkscape:connector-curvature="0"
           id="path3602"
           style="fill:#000000;fill-opacity:1;fill-rule:nonzero;stroke:none"
           d="m 0,0 c 0,2.873 -1.693,4.083 -3.554,4.083 -1.859,0 -3.552,-1.21 -3.552,-4.083 0,-2.873 1.693,-4.083 3.552,-4.083 C -1.693,-4.083 0,-2.873 0,0 m 1.361,0 c 0,-3.916 -2.525,-5.217 -4.915,-5.217 -2.388,0 -4.914,1.301 -4.914,5.217 0,3.917 2.526,5.217 4.914,5.217 2.39,0 4.915,-1.3 4.915,-5.217" /></g><g
         transform="translate(554.8386,239.6825)"
         id="g3604"
         style="fill:#000000;fill-opacity:1"><path
           inkscape:connector-curvature="0"
           id="path3606"
           style="fill:#000000;fill-opacity:1;fill-rule:nonzero;stroke:none"
           d="m 0,0 c 0.257,0.046 0.726,0.046 0.983,0 l 0,-2.449 -7.107,0 c -0.046,0.287 -0.046,0.59 0,0.832 l 1.134,0.15 0,8.166 -1.134,0.152 c -0.046,0.242 -0.046,0.544 0,0.832 l 3.554,0 c 0.045,-0.288 0.045,-0.59 0,-0.832 l -1.135,-0.152 0,-8.014 3.584,0 L 0,0 z" /></g><g
         transform="translate(566.9246,242.2987)"
         id="g3608"
         style="fill:#000000;fill-opacity:1"><path
           inkscape:connector-curvature="0"
           id="path3610"
           style="fill:#000000;fill-opacity:1;fill-rule:nonzero;stroke:none"
           d="m 0,0 c 0,2.873 -1.693,4.083 -3.554,4.083 -1.859,0 -3.552,-1.21 -3.552,-4.083 0,-2.873 1.693,-4.083 3.552,-4.083 C -1.693,-4.083 0,-2.873 0,0 m 1.361,0 c 0,-3.916 -2.525,-5.217 -4.915,-5.217 -2.388,0 -4.914,1.301 -4.914,5.217 0,3.917 2.526,5.217 4.914,5.217 2.39,0 4.915,-1.3 4.915,-5.217" /></g><g
         transform="translate(580.116,237.747)"
         id="g3612"
         style="fill:#000000;fill-opacity:1"><path
           inkscape:connector-curvature="0"
           id="path3614"
           style="fill:#000000;fill-opacity:1;fill-rule:nonzero;stroke:none"
           d="m 0,0 c -0.71,-0.362 -1.89,-0.665 -3.433,-0.665 -2.388,0 -4.914,1.301 -4.914,5.217 0,3.917 2.526,5.217 4.914,5.217 1.392,0 2.42,-0.302 3.131,-0.665 l 0,-2.299 c -0.257,-0.045 -0.725,-0.045 -0.983,0 l -0.152,1.512 c -0.574,0.197 -1.269,0.318 -1.996,0.318 -2.01,0 -3.552,-1.21 -3.552,-4.083 0,-2.873 1.693,-4.083 3.552,-4.083 0.863,0 1.574,0.076 2.148,0.197 l 0,3.13 -1.799,0 L -3.009,4.93 0,4.93 0,0 z" /></g><g
         transform="translate(588.6189,238.2157)"
         id="g3616"
         style="fill:#000000;fill-opacity:1"><path
           inkscape:connector-curvature="0"
           id="path3618"
           style="fill:#000000;fill-opacity:1;fill-rule:nonzero;stroke:none"
           d="m 0,0 1.135,-0.15 c 0.045,-0.243 0.045,-0.545 0,-0.832 l -3.554,0 c -0.046,0.287 -0.046,0.589 0,0.832 l 1.134,0.15 0,2.632 -2.964,5.534 -1.194,0.151 c -0.046,0.243 -0.046,0.544 0,0.832 l 3.553,0 c 0.045,-0.288 0.045,-0.589 0,-0.832 l -0.953,-0.135 2.148,-4.25 0.06,-0.756 0.031,0 0.06,0.756 2.148,4.234 -1.014,0.151 c -0.045,0.243 -0.045,0.544 0,0.832 l 3.554,0 C 4.188,8.861 4.188,8.56 4.144,8.317 L 2.949,8.182 0,2.632 0,0 z" /></g><g
         transform="translate(178.1135,327.7881)"
         id="g3620"
         style="fill:#000000;fill-opacity:1" /><g
         transform="translate(208.6425,317.9622)"
         id="g3624"
         style="fill:#000000;fill-opacity:1" /><g
         transform="translate(149.4373,325.7737)"
         id="g3628"
         style="fill:#000000;fill-opacity:1" /><g
         transform="translate(216.3153,301.0614)"
         id="g3632"
         style="fill:#000000;fill-opacity:1" /><g
         transform="translate(197.3195,342.6479)"
         id="g3636"
         style="fill:#000000;fill-opacity:1" /><g
         transform="translate(217.6128,292.0743)"
         id="g3640"
         style="fill:#000000;fill-opacity:1" /><g
         transform="translate(227.2652,324.6555)"
         id="g3644"
         style="fill:#000000;fill-opacity:1" /><g
         transform="translate(173.3753,266.6218)"
         id="g3648"
         style="fill:#000000;fill-opacity:1" /><g
         transform="translate(191.406,278.0458)"
         id="g3652"
         style="fill:#000000;fill-opacity:1" /><g
         transform="translate(204.0715,324.314)"
         id="g3656"
         style="fill:#000000;fill-opacity:1" /><g
         transform="translate(152.9736,286.6845)"
         id="g3660"
         style="fill:#000000;fill-opacity:1" /></g></g><g
     inkscape:groupmode="layer"
     id="layer2"
     inkscape:label="Warstwa#1"
     style="display:inline"
     transform="translate(-1.0039926,-0.31042412)"><path
       clip-rule="evenodd"
       d="m 141.25106,115.8615 c 14.18436,0.43792 25.49933,12.25957 25.26237,26.49363 -0.23905,14.35905 -12.14509,25.87518 -26.50453,25.63613 -0.0398,-5.9e-4 -0.079,-0.003 -0.11873,-0.005 -0.0176,-2.9e-4 -0.0343,5.8e-4 -0.0518,2.9e-4 -0.0526,-7.8e-4 -0.10432,-0.005 -0.15727,-0.006 -14.20541,-0.41333 -25.54552,-12.24516 -25.30831,-26.4948 0.23348,-14.02493 11.59819,-25.33583 25.50691,-25.63207 0.4519,-0.0264 0.91918,-0.0186 1.37138,0.007 l 0,0 z m -12.58862,43.69674 c -2.26457,-4.1919 -3.70657,-9.64341 -3.91635,-15.64352 l -5.44043,-0.0906 c 0.58615,6.53221 4.16026,12.24749 9.35678,15.7341 l 0,0 z m -9.28134,-20.24305 5.44551,0.0906 c 0.4402,-6.03993 2.21387,-11.52672 4.71909,-15.68207 -5.46201,3.28696 -9.34769,8.96453 -10.1646,15.59141 l 0,0 z m 32.03406,-15.54829 c 2.4669,4.27629 4.13349,9.94734 4.37878,16.15447 l 5.78621,0.0963 c -0.61526,-6.86574 -4.53228,-12.82941 -10.16499,-16.25081 l 0,0 z m 10.08994,20.75977 -5.78117,-0.0962 c -0.41948,6.15205 -2.12062,11.68097 -4.63126,15.83504 5.59209,-3.26337 9.58296,-9.0124 10.41243,-15.73879 l 0,0 z m -31.84088,-5.0403 8.53585,0.14212 0.31368,-18.84272 c -0.18492,0.0172 -0.36869,0.0359 -0.55213,0.0578 -3.70368,2.6299 -7.5589,10.10405 -8.2974,18.6428 l 0,0 z m 12.75664,0.21237 8.53584,0.14212 c -0.45607,-8.61397 -4.10445,-16.2543 -7.74189,-18.96086 -0.15935,-0.0209 -0.31953,-0.04 -0.47971,-0.0574 l -0.31424,18.87618 0,0 z m 8.48103,4.65141 -8.55649,-0.14245 -0.31421,18.87542 c 0.0854,-0.006 0.17119,-0.0119 0.25661,-0.0195 4.1701,-2.19484 7.95103,-9.72317 8.61409,-18.71348 l 0,0 z m -12.77689,-0.2127 -8.55648,-0.14246 c 0.36101,8.9427 3.84132,16.54791 7.89806,18.93891 0.11464,0.0164 0.22968,0.0311 0.34474,0.0458 l 0.31368,-18.84231 0,0 z"
       id="path3009"
       inkscape:connector-curvature="0"
       style="fill:#000000;fill-opacity:1;fill-rule:evenodd;display:inline" /><path
       d="m 103.37036,121.93446 c 0.51728,-3.95511 1.38869,-7.72553 2.53884,-11.27591 1.83143,-0.43967 3.72131,-0.83433 5.6677,-1.18405 -0.7695,2.02437 -1.44035,4.13685 -1.99568,6.32875 -2.1244,2.01116 -4.19445,4.05516 -6.21086,6.13121 l 0,0 z m 8.7597,-24.7232 c 4.79525,-7.71635 10.88619,-13.52197 16.83154,-16.737004 3.49661,-1.890928 6.985,-2.91376 10.19667,-2.942876 7.86358,-0.07125 15.62416,3.844443 22.07866,10.47669 4.68825,4.81846 8.70261,11.08835 11.55658,18.29669 2.84088,7.17544 4.54072,15.29399 4.61725,23.8471 0.0832,9.20373 -1.70545,18.91341 -5.96576,28.49393 -2.70457,1.73974 -5.43785,3.42798 -8.19873,5.06435 6.60883,-11.15442 9.30361,-22.71909 9.20564,-33.51696 -0.0717,-7.9259 -1.6419,-15.43699 -4.26598,-22.06466 -2.61061,-6.59397 -6.25649,-12.30223 -10.49744,-16.66063 -5.52769,-5.68081 -12.03481,-9.036148 -18.48971,-8.977287 -2.39354,0.02132 -5.09009,0.836077 -7.87802,2.343837 -4.31142,2.33155 -8.73858,6.25778 -12.57878,11.44805 -1.95561,0.24906 -3.90966,0.51919 -5.86167,0.8096 -0.25189,0.0379 -0.49915,0.0804 -0.75025,0.11917 l 0,0 z"
       id="path3011"
       inkscape:connector-curvature="0"
       style="fill:#000000;fill-opacity:1;display:inline" /><path
       d="m 110.21314,170.35856 c -3.60214,-1.71424 -6.91801,-3.70807 -9.93963,-5.89877 0.14772,-1.87773 0.35613,-3.7973 0.62519,-5.75678 1.68776,1.35712 3.48921,2.64799 5.40233,3.85346 1.25619,2.64274 2.56063,5.24305 3.91211,7.80209 l 0,0 z M 89.40695,154.3879 c -5.85684,-6.94482 -9.49599,-14.53164 -10.71629,-21.17997 -0.71784,-3.90985 -0.61295,-7.54346 0.35225,-10.60689 2.36225,-7.50056 8.48458,-13.6718 16.78663,-17.76023 6.03125,-2.97015 13.23472,-4.85037 20.97239,-5.33698 7.7018,-0.48451 15.9486,0.40767 24.10708,2.97715 8.77886,2.76526 17.46042,7.46753 25.25553,14.47965 0.8192,3.10952 1.57978,6.2313 2.2833,9.36226 -8.56626,-9.73249 -18.73255,-15.86836 -29.03229,-19.11232 -7.55982,-2.38116 -15.18835,-3.2089 -22.30254,-2.76176 -7.07831,0.4454 -13.63378,2.14869 -19.08928,4.83511 -7.11089,3.50179 -12.31296,8.65419 -14.25163,14.81056 -0.71928,2.28307 -0.77746,5.09947 -0.20535,8.21693 0.88497,4.82059 3.25136,10.24466 7.0006,15.50052 -0.36723,1.93679 -0.71429,3.87858 -1.04117,5.82501 -0.0431,0.25209 -0.0788,0.5004 -0.11923,0.75096 l 0,0 z"
       id="path3013"
       inkscape:connector-curvature="0"
       style="fill:#000000;fill-opacity:1;display:inline" /><path
       d="m 158.38177,178.81521 c -2.74368,2.89596 -5.66483,5.43333 -8.68197,7.63023 -1.74006,-0.72075 -3.50112,-1.51236 -5.2813,-2.37361 1.8123,-1.1855 3.59675,-2.50001 5.33392,-3.94698 2.9012,-0.37862 5.77726,-0.81569 8.62935,-1.30964 l 0,0 z m -21.61886,14.85228 c -8.41487,3.424 -16.75508,4.54057 -23.45508,3.64726 -3.94017,-0.5256 -7.36353,-1.74881 -9.97887,-3.61297 -6.40362,-4.5646 -10.38083,-12.29416 -11.70384,-21.45347 -0.96079,-6.65373 -0.52311,-14.08582 1.40497,-21.59516 1.91932,-7.47442 5.31646,-15.04188 10.28112,-22.00713 5.34274,-7.49495 12.49768,-14.29833 21.57509,-19.54551 3.21047,0.18199 6.41451,0.42308 9.60941,0.72165 -11.90309,5.1394 -20.88036,12.91193 -27.14839,21.70531 -4.60091,6.45442 -7.74554,13.45349 -9.51825,20.35776 -1.76358,6.86937 -2.16983,13.63047 -1.30051,19.64894 1.13298,7.84503 4.42576,14.3845 9.68146,18.13113 1.94901,1.38913 4.60956,2.31527 7.75105,2.73411 4.85817,0.64801 10.74827,0.0733 16.90536,-1.86831 1.72846,0.94805 3.46776,1.87795 5.21824,2.79051 0.22705,0.11908 0.45231,0.22995 0.67824,0.34588 l 0,0 z"
       id="path3015"
       inkscape:connector-curvature="0"
       style="fill:#000000;fill-opacity:1;display:inline" /><path
       d="m 181.30882,135.61702 c 1.90676,3.50428 3.41761,7.06625 4.57421,10.61492 -1.22355,1.43213 -2.52031,2.86265 -3.88984,4.28964 -0.56779,-2.09026 -1.26623,-4.1932 -2.10536,-6.29263 0.53635,-2.87662 1.01025,-5.74685 1.42099,-8.61193 l 0,0 z m 7.44525,25.15038 c 0.65623,9.06096 -0.85928,17.33826 -3.77931,23.43387 -1.71745,3.58498 -3.93809,6.46314 -6.52008,8.37397 -6.31912,4.67962 -14.89962,6.07382 -24.01968,4.50141 -6.62498,-1.14173 -13.55839,-3.85484 -20.10438,-8.00933 -6.51556,-4.13528 -12.66291,-9.7041 -17.75279,-16.57848 -5.47693,-7.39734 -9.73641,-16.30405 -11.9215,-26.5594 1.16508,-2.99701 2.3843,-5.96977 3.65604,-8.91594 1.20917,12.90885 5.82744,23.84857 12.25333,32.52686 4.71657,6.36999 10.40146,11.52367 16.42017,15.34297 5.98789,3.80009 12.29305,6.27565 18.28573,7.30831 7.81115,1.34688 15.04815,0.23611 20.23503,-3.60504 1.92337,-1.42401 3.6267,-3.66848 4.9959,-6.52654 2.11699,-4.42005 3.3911,-10.1995 3.44755,-16.65519 1.43526,-1.35071 2.85795,-2.718 4.26608,-4.10031 0.18292,-0.17809 0.3577,-0.35786 0.53791,-0.53716 l 0,0 z"
       id="path3017"
       inkscape:connector-curvature="0"
       style="fill:#000000;fill-opacity:1;display:inline" /><path
       d="m 147.31004,100.46312 c 3.92174,-0.73045 7.77692,-1.0663 11.50856,-1.07001 0.98442,1.60596 1.94397,3.28167 2.87821,5.02435 -2.16354,-0.10615 -4.37975,-0.0912 -6.63559,0.0582 -2.56972,-1.39948 -5.15332,-2.73647 -7.75118,-4.01252 l 0,0 z m 26.21971,0.69085 c 8.8206,2.17584 16.22417,6.17478 21.11916,10.83581 2.87963,2.74107 4.92993,5.74253 5.94961,8.78839 2.49731,7.4568 1.17212,16.04772 -3.14137,24.23561 -3.13297,5.94796 -7.85584,11.70352 -13.82955,16.6452 -5.94685,4.91913 -13.1425,9.0439 -21.25345,11.76091 -8.72748,2.92332 -18.51468,4.22185 -28.94295,3.13095 -2.49021,-2.03425 -4.94071,-4.11259 -7.34964,-6.23272 12.65059,2.83907 24.48185,1.82775 34.72092,-1.60247 7.51594,-2.51698 14.17434,-6.3313 19.6666,-10.8751 5.46461,-4.52051 9.76704,-9.75178 12.60155,-15.13211 3.69483,-7.01289 4.87384,-14.23906 2.82442,-20.35936 -0.76032,-2.26952 -2.3687,-4.58237 -4.66356,-6.76797 -3.54988,-3.37973 -8.65252,-6.3771 -14.77473,-8.42543 -0.84128,-1.7828 -1.70177,-3.55773 -2.58148,-5.32482 -0.11306,-0.2278 -0.23051,-0.45022 -0.34553,-0.67689 l 0,0 z"
       id="path3019"
       inkscape:connector-curvature="0"
       style="fill:#000000;fill-opacity:1;display:inline" /></g></svg>